<svg xmlns="http://www.w3.org/2000/svg" width="980" height="1953" style="cursor: move; touch-action: none; -webkit-tap-highlight-color: rgba(0, 0, 0, 0);"><g transform="translate(-968.118593626082,-1693.3432669215504) scale(2.6258289814140046)"><path class="link" marker-end="" d="M392,910.5, 459,834.5" style="stroke-width: 0.98; stroke-opacity: 1; stroke: rgb(255, 255, 255); fill: none;"></path><path class="link" marker-end="" d="M392,910.5, 459,872.5" style="stroke-width: 0.98; stroke-opacity: 1; stroke: rgb(255, 255, 255); fill: none;"></path><path class="link" marker-end="" d="M392,910.5, 459,910.5" style="stroke-width: 0.98; stroke-opacity: 1; stroke: rgb(255, 255, 255); fill: none;"></path><path class="link" marker-end="" d="M392,910.5, 459,948.5" style="stroke-width: 0.98; stroke-opacity: 1; stroke: rgb(255, 255, 255); fill: none;"></path><path class="link" marker-end="" d="M392,910.5, 459,986.5" style="stroke-width: 0.98; stroke-opacity: 1; stroke: rgb(255, 255, 255); fill: none;"></path><path class="link" marker-end="" d="M392,948.5, 459,834.5" style="stroke-width: 0.98; stroke-opacity: 1; stroke: rgb(255, 255, 255); fill: none;"></path><path class="link" marker-end="" d="M392,948.5, 459,872.5" style="stroke-width: 0.98; stroke-opacity: 1; stroke: rgb(255, 255, 255); fill: none;"></path><path class="link" marker-end="" d="M392,948.5, 459,910.5" style="stroke-width: 0.98; stroke-opacity: 1; stroke: rgb(255, 255, 255); fill: none;"></path><path class="link" marker-end="" d="M392,948.5, 459,948.5" style="stroke-width: 0.98; stroke-opacity: 1; stroke: rgb(255, 255, 255); fill: none;"></path><path class="link" marker-end="" d="M392,948.5, 459,986.5" style="stroke-width: 0.98; stroke-opacity: 1; stroke: rgb(255, 255, 255); fill: none;"></path><path class="link" marker-end="" d="M459,796.5, 526,872.5" style="stroke-width: 0.98; stroke-opacity: 1; stroke: rgb(255, 255, 255); fill: none;"></path><path class="link" marker-end="" d="M459,834.5, 526,872.5" style="stroke-width: 0.98; stroke-opacity: 1; stroke: rgb(255, 255, 255); fill: none;"></path><path class="link" marker-end="" d="M459,872.5, 526,872.5" style="stroke-width: 0.98; stroke-opacity: 1; stroke: rgb(255, 255, 255); fill: none;"></path><path class="link" marker-end="" d="M459,910.5, 526,872.5" style="stroke-width: 0.98; stroke-opacity: 1; stroke: rgb(255, 255, 255); fill: none;"></path><path class="link" marker-end="" d="M459,948.5, 526,872.5" style="stroke-width: 0.98; stroke-opacity: 1; stroke: rgb(255, 255, 255); fill: none;"></path><path class="link" marker-end="" d="M459,986.5, 526,872.5" style="stroke-width: 0.98; stroke-opacity: 1; stroke: rgb(255, 255, 255); fill: none;"></path><path class="link" marker-end="" d="M392,910.5, 459,796.5" style="stroke-width: 0.98; stroke-opacity: 1; stroke: rgb(255, 255, 255); fill: none;"></path><path class="link" marker-end="" d="M392,948.5, 459,796.5" style="stroke-width: 0.98; stroke-opacity: 1; stroke: rgb(255, 255, 255); fill: none;"></path><path class="link" marker-end="" d="M459,796.5, 526,834.5" style="stroke-width: 0.98; stroke-opacity: 1; stroke: rgb(255, 255, 255); fill: none;"></path><path class="link" marker-end="" d="M459,834.5, 526,834.5" style="stroke-width: 0.98; stroke-opacity: 1; stroke: rgb(255, 255, 255); fill: none;"></path><path class="link" marker-end="" d="M459,872.5, 526,834.5" style="stroke-width: 0.98; stroke-opacity: 1; stroke: rgb(255, 255, 255); fill: none;"></path><path class="link" marker-end="" d="M459,910.5, 526,834.5" style="stroke-width: 0.98; stroke-opacity: 1; stroke: rgb(255, 255, 255); fill: none;"></path><path class="link" marker-end="" d="M459,948.5, 526,834.5" style="stroke-width: 0.98; stroke-opacity: 1; stroke: rgb(255, 255, 255); fill: none;"></path><path class="link" marker-end="" d="M459,986.5, 526,834.5" style="stroke-width: 0.98; stroke-opacity: 1; stroke: rgb(255, 255, 255); fill: none;"></path><path class="link" marker-end="" d="M392,986.5, 459,796.5" style="stroke-width: 0.98; stroke-opacity: 1; stroke: rgb(255, 255, 255); fill: none;"></path><path class="link" marker-end="" d="M392,986.5, 459,834.5" style="stroke-width: 0.98; stroke-opacity: 1; stroke: rgb(255, 255, 255); fill: none;"></path><path class="link" marker-end="" d="M392,986.5, 459,872.5" style="stroke-width: 0.98; stroke-opacity: 1; stroke: rgb(255, 255, 255); fill: none;"></path><path class="link" marker-end="" d="M392,986.5, 459,910.5" style="stroke-width: 0.98; stroke-opacity: 1; stroke: rgb(255, 255, 255); fill: none;"></path><path class="link" marker-end="" d="M392,986.5, 459,948.5" style="stroke-width: 0.98; stroke-opacity: 1; stroke: rgb(255, 255, 255); fill: none;"></path><path class="link" marker-end="" d="M392,986.5, 459,986.5" style="stroke-width: 0.98; stroke-opacity: 1; stroke: rgb(255, 255, 255); fill: none;"></path><path class="link" marker-end="" d="M392,1024.5, 459,796.5" style="stroke-width: 0.98; stroke-opacity: 1; stroke: rgb(255, 255, 255); fill: none;"></path><path class="link" marker-end="" d="M392,1024.5, 459,834.5" style="stroke-width: 0.98; stroke-opacity: 1; stroke: rgb(255, 255, 255); fill: none;"></path><path class="link" marker-end="" d="M392,1024.5, 459,872.5" style="stroke-width: 0.98; stroke-opacity: 1; stroke: rgb(255, 255, 255); fill: none;"></path><path class="link" marker-end="" d="M392,1024.5, 459,910.5" style="stroke-width: 0.98; stroke-opacity: 1; stroke: rgb(255, 255, 255); fill: none;"></path><path class="link" marker-end="" d="M392,1024.5, 459,948.5" style="stroke-width: 0.98; stroke-opacity: 1; stroke: rgb(255, 255, 255); fill: none;"></path><path class="link" marker-end="" d="M392,1024.5, 459,986.5" style="stroke-width: 0.98; stroke-opacity: 1; stroke: rgb(255, 255, 255); fill: none;"></path><path class="link" marker-end="" d="M392,910.5, 459,1024.5" style="stroke-width: 0.98; stroke-opacity: 1; stroke: rgb(255, 255, 255); fill: none;"></path><path class="link" marker-end="" d="M392,910.5, 459,1062.5" style="stroke-width: 0.98; stroke-opacity: 1; stroke: rgb(255, 255, 255); fill: none;"></path><path class="link" marker-end="" d="M392,948.5, 459,1024.5" style="stroke-width: 0.98; stroke-opacity: 1; stroke: rgb(255, 255, 255); fill: none;"></path><path class="link" marker-end="" d="M392,948.5, 459,1062.5" style="stroke-width: 0.98; stroke-opacity: 1; stroke: rgb(255, 255, 255); fill: none;"></path><path class="link" marker-end="" d="M392,986.5, 459,1024.5" style="stroke-width: 0.98; stroke-opacity: 1; stroke: rgb(255, 255, 255); fill: none;"></path><path class="link" marker-end="" d="M392,986.5, 459,1062.5" style="stroke-width: 0.98; stroke-opacity: 1; stroke: rgb(255, 255, 255); fill: none;"></path><path class="link" marker-end="" d="M392,1024.5, 459,1024.5" style="stroke-width: 0.98; stroke-opacity: 1; stroke: rgb(255, 255, 255); fill: none;"></path><path class="link" marker-end="" d="M392,1024.5, 459,1062.5" style="stroke-width: 0.98; stroke-opacity: 1; stroke: rgb(255, 255, 255); fill: none;"></path><path class="link" marker-end="" d="M459,1024.5, 526,834.5" style="stroke-width: 0.98; stroke-opacity: 1; stroke: rgb(255, 255, 255); fill: none;"></path><path class="link" marker-end="" d="M459,1024.5, 526,872.5" style="stroke-width: 0.98; stroke-opacity: 1; stroke: rgb(255, 255, 255); fill: none;"></path><path class="link" marker-end="" d="M459,1062.5, 526,834.5" style="stroke-width: 0.98; stroke-opacity: 1; stroke: rgb(255, 255, 255); fill: none;"></path><path class="link" marker-end="" d="M459,1062.5, 526,872.5" style="stroke-width: 0.98; stroke-opacity: 1; stroke: rgb(255, 255, 255); fill: none;"></path><path class="link" marker-end="" d="M459,796.5, 526,910.5" style="stroke-width: 0.98; stroke-opacity: 1; stroke: rgb(255, 255, 255); fill: none;"></path><path class="link" marker-end="" d="M459,796.5, 526,948.5" style="stroke-width: 0.98; stroke-opacity: 1; stroke: rgb(255, 255, 255); fill: none;"></path><path class="link" marker-end="" d="M459,796.5, 526,986.5" style="stroke-width: 0.98; stroke-opacity: 1; stroke: rgb(255, 255, 255); fill: none;"></path><path class="link" marker-end="" d="M459,796.5, 526,1024.5" style="stroke-width: 0.98; stroke-opacity: 1; stroke: rgb(255, 255, 255); fill: none;"></path><path class="link" marker-end="" d="M459,796.5, 526,1062.5" style="stroke-width: 0.98; stroke-opacity: 1; stroke: rgb(255, 255, 255); fill: none;"></path><path class="link" marker-end="" d="M459,796.5, 526,1100.5" style="stroke-width: 0.98; stroke-opacity: 1; stroke: rgb(255, 255, 255); fill: none;"></path><path class="link" marker-end="" d="M459,834.5, 526,910.5" style="stroke-width: 0.98; stroke-opacity: 1; stroke: rgb(255, 255, 255); fill: none;"></path><path class="link" marker-end="" d="M459,834.5, 526,948.5" style="stroke-width: 0.98; stroke-opacity: 1; stroke: rgb(255, 255, 255); fill: none;"></path><path class="link" marker-end="" d="M459,834.5, 526,986.5" style="stroke-width: 0.98; stroke-opacity: 1; stroke: rgb(255, 255, 255); fill: none;"></path><path class="link" marker-end="" d="M459,834.5, 526,1024.5" style="stroke-width: 0.98; stroke-opacity: 1; stroke: rgb(255, 255, 255); fill: none;"></path><path class="link" marker-end="" d="M459,834.5, 526,1062.5" style="stroke-width: 0.98; stroke-opacity: 1; stroke: rgb(255, 255, 255); fill: none;"></path><path class="link" marker-end="" d="M459,834.5, 526,1100.5" style="stroke-width: 0.98; stroke-opacity: 1; stroke: rgb(255, 255, 255); fill: none;"></path><path class="link" marker-end="" d="M459,872.5, 526,910.5" style="stroke-width: 0.98; stroke-opacity: 1; stroke: rgb(255, 255, 255); fill: none;"></path><path class="link" marker-end="" d="M459,872.5, 526,948.5" style="stroke-width: 0.98; stroke-opacity: 1; stroke: rgb(255, 255, 255); fill: none;"></path><path class="link" marker-end="" d="M459,872.5, 526,986.5" style="stroke-width: 0.98; stroke-opacity: 1; stroke: rgb(255, 255, 255); fill: none;"></path><path class="link" marker-end="" d="M459,872.5, 526,1024.5" style="stroke-width: 0.98; stroke-opacity: 1; stroke: rgb(255, 255, 255); fill: none;"></path><path class="link" marker-end="" d="M459,872.5, 526,1062.5" style="stroke-width: 0.98; stroke-opacity: 1; stroke: rgb(255, 255, 255); fill: none;"></path><path class="link" marker-end="" d="M459,872.5, 526,1100.5" style="stroke-width: 0.98; stroke-opacity: 1; stroke: rgb(255, 255, 255); fill: none;"></path><path class="link" marker-end="" d="M459,910.5, 526,910.5" style="stroke-width: 0.98; stroke-opacity: 1; stroke: rgb(255, 255, 255); fill: none;"></path><path class="link" marker-end="" d="M459,910.5, 526,948.5" style="stroke-width: 0.98; stroke-opacity: 1; stroke: rgb(255, 255, 255); fill: none;"></path><path class="link" marker-end="" d="M459,910.5, 526,986.5" style="stroke-width: 0.98; stroke-opacity: 1; stroke: rgb(255, 255, 255); fill: none;"></path><path class="link" marker-end="" d="M459,910.5, 526,1024.5" style="stroke-width: 0.98; stroke-opacity: 1; stroke: rgb(255, 255, 255); fill: none;"></path><path class="link" marker-end="" d="M459,910.5, 526,1062.5" style="stroke-width: 0.98; stroke-opacity: 1; stroke: rgb(255, 255, 255); fill: none;"></path><path class="link" marker-end="" d="M459,910.5, 526,1100.5" style="stroke-width: 0.98; stroke-opacity: 1; stroke: rgb(255, 255, 255); fill: none;"></path><path class="link" marker-end="" d="M459,948.5, 526,910.5" style="stroke-width: 0.98; stroke-opacity: 1; stroke: rgb(255, 255, 255); fill: none;"></path><path class="link" marker-end="" d="M459,948.5, 526,948.5" style="stroke-width: 0.98; stroke-opacity: 1; stroke: rgb(255, 255, 255); fill: none;"></path><path class="link" marker-end="" d="M459,948.5, 526,986.5" style="stroke-width: 0.98; stroke-opacity: 1; stroke: rgb(255, 255, 255); fill: none;"></path><path class="link" marker-end="" d="M459,948.5, 526,1024.5" style="stroke-width: 0.98; stroke-opacity: 1; stroke: rgb(255, 255, 255); fill: none;"></path><path class="link" marker-end="" d="M459,948.5, 526,1062.5" style="stroke-width: 0.98; stroke-opacity: 1; stroke: rgb(255, 255, 255); fill: none;"></path><path class="link" marker-end="" d="M459,948.5, 526,1100.5" style="stroke-width: 0.98; stroke-opacity: 1; stroke: rgb(255, 255, 255); fill: none;"></path><path class="link" marker-end="" d="M459,986.5, 526,910.5" style="stroke-width: 0.98; stroke-opacity: 1; stroke: rgb(255, 255, 255); fill: none;"></path><path class="link" marker-end="" d="M459,986.5, 526,948.5" style="stroke-width: 0.98; stroke-opacity: 1; stroke: rgb(255, 255, 255); fill: none;"></path><path class="link" marker-end="" d="M459,986.5, 526,986.5" style="stroke-width: 0.98; stroke-opacity: 1; stroke: rgb(255, 255, 255); fill: none;"></path><path class="link" marker-end="" d="M459,986.5, 526,1024.5" style="stroke-width: 0.98; stroke-opacity: 1; stroke: rgb(255, 255, 255); fill: none;"></path><path class="link" marker-end="" d="M459,986.5, 526,1062.5" style="stroke-width: 0.98; stroke-opacity: 1; stroke: rgb(255, 255, 255); fill: none;"></path><path class="link" marker-end="" d="M459,986.5, 526,1100.5" style="stroke-width: 0.98; stroke-opacity: 1; stroke: rgb(255, 255, 255); fill: none;"></path><path class="link" marker-end="" d="M459,1024.5, 526,910.5" style="stroke-width: 0.98; stroke-opacity: 1; stroke: rgb(255, 255, 255); fill: none;"></path><path class="link" marker-end="" d="M459,1024.5, 526,948.5" style="stroke-width: 0.98; stroke-opacity: 1; stroke: rgb(255, 255, 255); fill: none;"></path><path class="link" marker-end="" d="M459,1024.5, 526,986.5" style="stroke-width: 0.98; stroke-opacity: 1; stroke: rgb(255, 255, 255); fill: none;"></path><path class="link" marker-end="" d="M459,1024.5, 526,1024.5" style="stroke-width: 0.98; stroke-opacity: 1; stroke: rgb(255, 255, 255); fill: none;"></path><path class="link" marker-end="" d="M459,1024.5, 526,1062.5" style="stroke-width: 0.98; stroke-opacity: 1; stroke: rgb(255, 255, 255); fill: none;"></path><path class="link" marker-end="" d="M459,1024.5, 526,1100.5" style="stroke-width: 0.98; stroke-opacity: 1; stroke: rgb(255, 255, 255); fill: none;"></path><path class="link" marker-end="" d="M459,1062.5, 526,910.5" style="stroke-width: 0.98; stroke-opacity: 1; stroke: rgb(255, 255, 255); fill: none;"></path><path class="link" marker-end="" d="M459,1062.5, 526,948.5" style="stroke-width: 0.98; stroke-opacity: 1; stroke: rgb(255, 255, 255); fill: none;"></path><path class="link" marker-end="" d="M459,1062.5, 526,986.5" style="stroke-width: 0.98; stroke-opacity: 1; stroke: rgb(255, 255, 255); fill: none;"></path><path class="link" marker-end="" d="M459,1062.5, 526,1024.5" style="stroke-width: 0.98; stroke-opacity: 1; stroke: rgb(255, 255, 255); fill: none;"></path><path class="link" marker-end="" d="M459,1062.5, 526,1062.5" style="stroke-width: 0.98; stroke-opacity: 1; stroke: rgb(255, 255, 255); fill: none;"></path><path class="link" marker-end="" d="M459,1062.5, 526,1100.5" style="stroke-width: 0.98; stroke-opacity: 1; stroke: rgb(255, 255, 255); fill: none;"></path><path class="link" marker-end="" d="M392,910.5, 459,1100.5" style="stroke-width: 0.98; stroke-opacity: 1; stroke: rgb(255, 255, 255); fill: none;"></path><path class="link" marker-end="" d="M392,910.5, 459,1138.5" style="stroke-width: 0.98; stroke-opacity: 1; stroke: rgb(255, 255, 255); fill: none;"></path><path class="link" marker-end="" d="M392,948.5, 459,1100.5" style="stroke-width: 0.98; stroke-opacity: 1; stroke: rgb(255, 255, 255); fill: none;"></path><path class="link" marker-end="" d="M392,948.5, 459,1138.5" style="stroke-width: 0.98; stroke-opacity: 1; stroke: rgb(255, 255, 255); fill: none;"></path><path class="link" marker-end="" d="M392,986.5, 459,1100.5" style="stroke-width: 0.98; stroke-opacity: 1; stroke: rgb(255, 255, 255); fill: none;"></path><path class="link" marker-end="" d="M392,986.5, 459,1138.5" style="stroke-width: 0.98; stroke-opacity: 1; stroke: rgb(255, 255, 255); fill: none;"></path><path class="link" marker-end="" d="M392,1024.5, 459,1100.5" style="stroke-width: 0.98; stroke-opacity: 1; stroke: rgb(255, 255, 255); fill: none;"></path><path class="link" marker-end="" d="M392,1024.5, 459,1138.5" style="stroke-width: 0.98; stroke-opacity: 1; stroke: rgb(255, 255, 255); fill: none;"></path><path class="link" marker-end="" d="M459,1100.5, 526,834.5" style="stroke-width: 0.98; stroke-opacity: 1; stroke: rgb(255, 255, 255); fill: none;"></path><path class="link" marker-end="" d="M459,1100.5, 526,872.5" style="stroke-width: 0.98; stroke-opacity: 1; stroke: rgb(255, 255, 255); fill: none;"></path><path class="link" marker-end="" d="M459,1100.5, 526,910.5" style="stroke-width: 0.98; stroke-opacity: 1; stroke: rgb(255, 255, 255); fill: none;"></path><path class="link" marker-end="" d="M459,1100.5, 526,948.5" style="stroke-width: 0.98; stroke-opacity: 1; stroke: rgb(255, 255, 255); fill: none;"></path><path class="link" marker-end="" d="M459,1100.5, 526,986.5" style="stroke-width: 0.98; stroke-opacity: 1; stroke: rgb(255, 255, 255); fill: none;"></path><path class="link" marker-end="" d="M459,1100.5, 526,1024.5" style="stroke-width: 0.98; stroke-opacity: 1; stroke: rgb(255, 255, 255); fill: none;"></path><path class="link" marker-end="" d="M459,1100.5, 526,1062.5" style="stroke-width: 0.98; stroke-opacity: 1; stroke: rgb(255, 255, 255); fill: none;"></path><path class="link" marker-end="" d="M459,1100.5, 526,1100.5" style="stroke-width: 0.98; stroke-opacity: 1; stroke: rgb(255, 255, 255); fill: none;"></path><path class="link" marker-end="" d="M459,1138.5, 526,834.5" style="stroke-width: 0.98; stroke-opacity: 1; stroke: rgb(255, 255, 255); fill: none;"></path><path class="link" marker-end="" d="M459,1138.5, 526,872.5" style="stroke-width: 0.98; stroke-opacity: 1; stroke: rgb(255, 255, 255); fill: none;"></path><path class="link" marker-end="" d="M459,1138.5, 526,910.5" style="stroke-width: 0.98; stroke-opacity: 1; stroke: rgb(255, 255, 255); fill: none;"></path><path class="link" marker-end="" d="M459,1138.5, 526,948.5" style="stroke-width: 0.98; stroke-opacity: 1; stroke: rgb(255, 255, 255); fill: none;"></path><path class="link" marker-end="" d="M459,1138.5, 526,986.5" style="stroke-width: 0.98; stroke-opacity: 1; stroke: rgb(255, 255, 255); fill: none;"></path><path class="link" marker-end="" d="M459,1138.5, 526,1024.5" style="stroke-width: 0.98; stroke-opacity: 1; stroke: rgb(255, 255, 255); fill: none;"></path><path class="link" marker-end="" d="M459,1138.5, 526,1062.5" style="stroke-width: 0.98; stroke-opacity: 1; stroke: rgb(255, 255, 255); fill: none;"></path><path class="link" marker-end="" d="M459,1138.5, 526,1100.5" style="stroke-width: 0.98; stroke-opacity: 1; stroke: rgb(255, 255, 255); fill: none;"></path><path class="link" marker-end="" d="M526,834.5, 593,872.5" style="stroke-width: 0.98; stroke-opacity: 1; stroke: rgb(255, 255, 255); fill: none;"></path><path class="link" marker-end="" d="M526,834.5, 593,910.5" style="stroke-width: 0.98; stroke-opacity: 1; stroke: rgb(255, 255, 255); fill: none;"></path><path class="link" marker-end="" d="M526,834.5, 593,948.5" style="stroke-width: 0.98; stroke-opacity: 1; stroke: rgb(255, 255, 255); fill: none;"></path><path class="link" marker-end="" d="M526,834.5, 593,986.5" style="stroke-width: 0.98; stroke-opacity: 1; stroke: rgb(255, 255, 255); fill: none;"></path><path class="link" marker-end="" d="M526,834.5, 593,1024.5" style="stroke-width: 0.98; stroke-opacity: 1; stroke: rgb(255, 255, 255); fill: none;"></path><path class="link" marker-end="" d="M526,834.5, 593,1062.5" style="stroke-width: 0.98; stroke-opacity: 1; stroke: rgb(255, 255, 255); fill: none;"></path><path class="link" marker-end="" d="M526,872.5, 593,872.5" style="stroke-width: 0.98; stroke-opacity: 1; stroke: rgb(255, 255, 255); fill: none;"></path><path class="link" marker-end="" d="M526,872.5, 593,910.5" style="stroke-width: 0.98; stroke-opacity: 1; stroke: rgb(255, 255, 255); fill: none;"></path><path class="link" marker-end="" d="M526,872.5, 593,948.5" style="stroke-width: 0.98; stroke-opacity: 1; stroke: rgb(255, 255, 255); fill: none;"></path><path class="link" marker-end="" d="M526,872.5, 593,986.5" style="stroke-width: 0.98; stroke-opacity: 1; stroke: rgb(255, 255, 255); fill: none;"></path><path class="link" marker-end="" d="M526,872.5, 593,1024.5" style="stroke-width: 0.98; stroke-opacity: 1; stroke: rgb(255, 255, 255); fill: none;"></path><path class="link" marker-end="" d="M526,872.5, 593,1062.5" style="stroke-width: 0.98; stroke-opacity: 1; stroke: rgb(255, 255, 255); fill: none;"></path><path class="link" marker-end="" d="M526,910.5, 593,872.5" style="stroke-width: 0.98; stroke-opacity: 1; stroke: rgb(255, 255, 255); fill: none;"></path><path class="link" marker-end="" d="M526,910.5, 593,910.5" style="stroke-width: 0.98; stroke-opacity: 1; stroke: rgb(255, 255, 255); fill: none;"></path><path class="link" marker-end="" d="M526,910.5, 593,948.5" style="stroke-width: 0.98; stroke-opacity: 1; stroke: rgb(255, 255, 255); fill: none;"></path><path class="link" marker-end="" d="M526,910.5, 593,986.5" style="stroke-width: 0.98; stroke-opacity: 1; stroke: rgb(255, 255, 255); fill: none;"></path><path class="link" marker-end="" d="M526,910.5, 593,1024.5" style="stroke-width: 0.98; stroke-opacity: 1; stroke: rgb(255, 255, 255); fill: none;"></path><path class="link" marker-end="" d="M526,910.5, 593,1062.5" style="stroke-width: 0.98; stroke-opacity: 1; stroke: rgb(255, 255, 255); fill: none;"></path><path class="link" marker-end="" d="M526,948.5, 593,872.5" style="stroke-width: 0.98; stroke-opacity: 1; stroke: rgb(255, 255, 255); fill: none;"></path><path class="link" marker-end="" d="M526,948.5, 593,910.5" style="stroke-width: 0.98; stroke-opacity: 1; stroke: rgb(255, 255, 255); fill: none;"></path><path class="link" marker-end="" d="M526,948.5, 593,948.5" style="stroke-width: 0.98; stroke-opacity: 1; stroke: rgb(255, 255, 255); fill: none;"></path><path class="link" marker-end="" d="M526,948.5, 593,986.5" style="stroke-width: 0.98; stroke-opacity: 1; stroke: rgb(255, 255, 255); fill: none;"></path><path class="link" marker-end="" d="M526,948.5, 593,1024.5" style="stroke-width: 0.98; stroke-opacity: 1; stroke: rgb(255, 255, 255); fill: none;"></path><path class="link" marker-end="" d="M526,948.5, 593,1062.5" style="stroke-width: 0.98; stroke-opacity: 1; stroke: rgb(255, 255, 255); fill: none;"></path><path class="link" marker-end="" d="M526,986.5, 593,872.5" style="stroke-width: 0.98; stroke-opacity: 1; stroke: rgb(255, 255, 255); fill: none;"></path><path class="link" marker-end="" d="M526,986.5, 593,910.5" style="stroke-width: 0.98; stroke-opacity: 1; stroke: rgb(255, 255, 255); fill: none;"></path><path class="link" marker-end="" d="M526,986.5, 593,948.5" style="stroke-width: 0.98; stroke-opacity: 1; stroke: rgb(255, 255, 255); fill: none;"></path><path class="link" marker-end="" d="M526,986.5, 593,986.5" style="stroke-width: 0.98; stroke-opacity: 1; stroke: rgb(255, 255, 255); fill: none;"></path><path class="link" marker-end="" d="M526,986.5, 593,1024.5" style="stroke-width: 0.98; stroke-opacity: 1; stroke: rgb(255, 255, 255); fill: none;"></path><path class="link" marker-end="" d="M526,986.5, 593,1062.5" style="stroke-width: 0.98; stroke-opacity: 1; stroke: rgb(255, 255, 255); fill: none;"></path><path class="link" marker-end="" d="M526,1024.5, 593,872.5" style="stroke-width: 0.98; stroke-opacity: 1; stroke: rgb(255, 255, 255); fill: none;"></path><path class="link" marker-end="" d="M526,1024.5, 593,910.5" style="stroke-width: 0.98; stroke-opacity: 1; stroke: rgb(255, 255, 255); fill: none;"></path><path class="link" marker-end="" d="M526,1024.5, 593,948.5" style="stroke-width: 0.98; stroke-opacity: 1; stroke: rgb(255, 255, 255); fill: none;"></path><path class="link" marker-end="" d="M526,1024.5, 593,986.5" style="stroke-width: 0.98; stroke-opacity: 1; stroke: rgb(255, 255, 255); fill: none;"></path><path class="link" marker-end="" d="M526,1024.5, 593,1024.5" style="stroke-width: 0.98; stroke-opacity: 1; stroke: rgb(255, 255, 255); fill: none;"></path><path class="link" marker-end="" d="M526,1024.5, 593,1062.5" style="stroke-width: 0.98; stroke-opacity: 1; stroke: rgb(255, 255, 255); fill: none;"></path><path class="link" marker-end="" d="M526,1062.5, 593,872.5" style="stroke-width: 0.98; stroke-opacity: 1; stroke: rgb(255, 255, 255); fill: none;"></path><path class="link" marker-end="" d="M526,1062.5, 593,910.5" style="stroke-width: 0.98; stroke-opacity: 1; stroke: rgb(255, 255, 255); fill: none;"></path><path class="link" marker-end="" d="M526,1062.5, 593,948.5" style="stroke-width: 0.98; stroke-opacity: 1; stroke: rgb(255, 255, 255); fill: none;"></path><path class="link" marker-end="" d="M526,1062.5, 593,986.5" style="stroke-width: 0.98; stroke-opacity: 1; stroke: rgb(255, 255, 255); fill: none;"></path><path class="link" marker-end="" d="M526,1062.5, 593,1024.5" style="stroke-width: 0.98; stroke-opacity: 1; stroke: rgb(255, 255, 255); fill: none;"></path><path class="link" marker-end="" d="M526,1062.5, 593,1062.5" style="stroke-width: 0.98; stroke-opacity: 1; stroke: rgb(255, 255, 255); fill: none;"></path><path class="link" marker-end="" d="M526,1100.5, 593,872.5" style="stroke-width: 0.98; stroke-opacity: 1; stroke: rgb(255, 255, 255); fill: none;"></path><path class="link" marker-end="" d="M526,1100.5, 593,910.5" style="stroke-width: 0.98; stroke-opacity: 1; stroke: rgb(255, 255, 255); fill: none;"></path><path class="link" marker-end="" d="M526,1100.5, 593,948.5" style="stroke-width: 0.98; stroke-opacity: 1; stroke: rgb(255, 255, 255); fill: none;"></path><path class="link" marker-end="" d="M526,1100.5, 593,986.5" style="stroke-width: 0.98; stroke-opacity: 1; stroke: rgb(255, 255, 255); fill: none;"></path><path class="link" marker-end="" d="M526,1100.5, 593,1024.5" style="stroke-width: 0.98; stroke-opacity: 1; stroke: rgb(255, 255, 255); fill: none;"></path><path class="link" marker-end="" d="M526,1100.5, 593,1062.5" style="stroke-width: 0.98; stroke-opacity: 1; stroke: rgb(255, 255, 255); fill: none;"></path><path class="link" marker-end="" d="M593,872.5, 660,910.5" style="stroke-width: 0.98; stroke-opacity: 1; stroke: rgb(255, 255, 255); fill: none;"></path><path class="link" marker-end="" d="M593,872.5, 660,948.5" style="stroke-width: 0.98; stroke-opacity: 1; stroke: rgb(255, 255, 255); fill: none;"></path><path class="link" marker-end="" d="M593,910.5, 660,910.5" style="stroke-width: 0.98; stroke-opacity: 1; stroke: rgb(255, 255, 255); fill: none;"></path><path class="link" marker-end="" d="M593,910.5, 660,948.5" style="stroke-width: 0.98; stroke-opacity: 1; stroke: rgb(255, 255, 255); fill: none;"></path><path class="link" marker-end="" d="M593,948.5, 660,910.5" style="stroke-width: 0.98; stroke-opacity: 1; stroke: rgb(255, 255, 255); fill: none;"></path><path class="link" marker-end="" d="M593,948.5, 660,948.5" style="stroke-width: 0.98; stroke-opacity: 1; stroke: rgb(255, 255, 255); fill: none;"></path><path class="link" marker-end="" d="M593,986.5, 660,910.5" style="stroke-width: 0.98; stroke-opacity: 1; stroke: rgb(255, 255, 255); fill: none;"></path><path class="link" marker-end="" d="M593,986.5, 660,948.5" style="stroke-width: 0.98; stroke-opacity: 1; stroke: rgb(255, 255, 255); fill: none;"></path><path class="link" marker-end="" d="M593,1024.5, 660,910.5" style="stroke-width: 0.98; stroke-opacity: 1; stroke: rgb(255, 255, 255); fill: none;"></path><path class="link" marker-end="" d="M593,1024.5, 660,948.5" style="stroke-width: 0.98; stroke-opacity: 1; stroke: rgb(255, 255, 255); fill: none;"></path><path class="link" marker-end="" d="M593,1062.5, 660,910.5" style="stroke-width: 0.98; stroke-opacity: 1; stroke: rgb(255, 255, 255); fill: none;"></path><path class="link" marker-end="" d="M593,1062.5, 660,948.5" style="stroke-width: 0.98; stroke-opacity: 1; stroke: rgb(255, 255, 255); fill: none;"></path><path class="link" marker-end="" d="M593,872.5, 660,986.5" style="stroke-width: 0.98; stroke-opacity: 1; stroke: rgb(255, 255, 255); fill: none;"></path><path class="link" marker-end="" d="M593,872.5, 660,1024.5" style="stroke-width: 0.98; stroke-opacity: 1; stroke: rgb(255, 255, 255); fill: none;"></path><path class="link" marker-end="" d="M593,910.5, 660,986.5" style="stroke-width: 0.98; stroke-opacity: 1; stroke: rgb(255, 255, 255); fill: none;"></path><path class="link" marker-end="" d="M593,910.5, 660,1024.5" style="stroke-width: 0.98; stroke-opacity: 1; stroke: rgb(255, 255, 255); fill: none;"></path><path class="link" marker-end="" d="M593,948.5, 660,986.5" style="stroke-width: 0.98; stroke-opacity: 1; stroke: rgb(255, 255, 255); fill: none;"></path><path class="link" marker-end="" d="M593,948.5, 660,1024.5" style="stroke-width: 0.98; stroke-opacity: 1; stroke: rgb(255, 255, 255); fill: none;"></path><path class="link" marker-end="" d="M593,986.5, 660,986.5" style="stroke-width: 0.98; stroke-opacity: 1; stroke: rgb(255, 255, 255); fill: none;"></path><path class="link" marker-end="" d="M593,986.5, 660,1024.5" style="stroke-width: 0.98; stroke-opacity: 1; stroke: rgb(255, 255, 255); fill: none;"></path><path class="link" marker-end="" d="M593,1024.5, 660,986.5" style="stroke-width: 0.98; stroke-opacity: 1; stroke: rgb(255, 255, 255); fill: none;"></path><path class="link" marker-end="" d="M593,1024.5, 660,1024.5" style="stroke-width: 0.98; stroke-opacity: 1; stroke: rgb(255, 255, 255); fill: none;"></path><path class="link" marker-end="" d="M593,1062.5, 660,986.5" style="stroke-width: 0.98; stroke-opacity: 1; stroke: rgb(255, 255, 255); fill: none;"></path><path class="link" marker-end="" d="M593,1062.5, 660,1024.5" style="stroke-width: 0.98; stroke-opacity: 1; stroke: rgb(255, 255, 255); fill: none;"></path><path class="link" marker-end="" d="M660,910.5, 727,948.5" style="stroke-width: 0.98; stroke-opacity: 1; stroke: rgb(255, 255, 255); fill: none;"></path><path class="link" marker-end="" d="M660,910.5, 727,986.5" style="stroke-width: 0.98; stroke-opacity: 1; stroke: rgb(255, 255, 255); fill: none;"></path><path class="link" marker-end="" d="M660,948.5, 727,948.5" style="stroke-width: 0.98; stroke-opacity: 1; stroke: rgb(255, 255, 255); fill: none;"></path><path class="link" marker-end="" d="M660,948.5, 727,986.5" style="stroke-width: 0.98; stroke-opacity: 1; stroke: rgb(255, 255, 255); fill: none;"></path><path class="link" marker-end="" d="M660,986.5, 727,948.5" style="stroke-width: 0.98; stroke-opacity: 1; stroke: rgb(255, 255, 255); fill: none;"></path><path class="link" marker-end="" d="M660,986.5, 727,986.5" style="stroke-width: 0.98; stroke-opacity: 1; stroke: rgb(255, 255, 255); fill: none;"></path><path class="link" marker-end="" d="M660,1024.5, 727,948.5" style="stroke-width: 0.98; stroke-opacity: 1; stroke: rgb(255, 255, 255); fill: none;"></path><path class="link" marker-end="" d="M660,1024.5, 727,986.5" style="stroke-width: 0.98; stroke-opacity: 1; stroke: rgb(255, 255, 255); fill: none;"></path><circle r="9" class="node" id="0_0" cx="392" cy="910.5" style="fill: rgb(255, 255, 255); stroke: rgb(255, 255, 255);"></circle><circle r="9" class="node" id="0_1" cx="392" cy="948.5" style="fill: rgb(255, 255, 255); stroke: rgb(255, 255, 255);"></circle><circle r="9" class="node" id="0_2" cx="392" cy="986.5" style="fill: rgb(255, 255, 255); stroke: rgb(255, 255, 255);"></circle><circle r="9" class="node" id="0_3" cx="392" cy="1024.5" style="fill: rgb(255, 255, 255); stroke: rgb(255, 255, 255);"></circle><circle r="9" class="node" id="1_0" cx="459" cy="796.5" style="fill: rgb(255, 255, 255); stroke: rgb(255, 255, 255);"></circle><circle r="9" class="node" id="1_1" cx="459" cy="834.5" style="fill: rgb(255, 255, 255); stroke: rgb(255, 255, 255);"></circle><circle r="9" class="node" id="1_2" cx="459" cy="872.5" style="fill: rgb(255, 255, 255); stroke: rgb(255, 255, 255);"></circle><circle r="9" class="node" id="1_3" cx="459" cy="910.5" style="fill: rgb(255, 255, 255); stroke: rgb(255, 255, 255);"></circle><circle r="9" class="node" id="1_4" cx="459" cy="948.5" style="fill: rgb(255, 255, 255); stroke: rgb(255, 255, 255);"></circle><circle r="9" class="node" id="1_5" cx="459" cy="986.5" style="fill: rgb(255, 255, 255); stroke: rgb(255, 255, 255);"></circle><circle r="9" class="node" id="1_6" cx="459" cy="1024.5" style="fill: rgb(255, 255, 255); stroke: rgb(255, 255, 255);"></circle><circle r="9" class="node" id="1_7" cx="459" cy="1062.5" style="fill: rgb(255, 255, 255); stroke: rgb(255, 255, 255);"></circle><circle r="9" class="node" id="1_8" cx="459" cy="1100.5" style="fill: rgb(255, 255, 255); stroke: rgb(255, 255, 255);"></circle><circle r="9" class="node" id="1_9" cx="459" cy="1138.5" style="fill: rgb(255, 255, 255); stroke: rgb(255, 255, 255);"></circle><circle r="9" class="node" id="2_0" cx="526" cy="834.5" style="fill: rgb(255, 255, 255); stroke: rgb(255, 255, 255);"></circle><circle r="9" class="node" id="2_1" cx="526" cy="872.5" style="fill: rgb(255, 255, 255); stroke: rgb(255, 255, 255);"></circle><text class="text" dy=".35em" x="357" y="1176.5" style="font-size: 12px;"></text><text class="text" dy=".35em" x="424" y="1176.5" style="font-size: 12px;"></text><text class="text" dy=".35em" x="491" y="1176.5" style="font-size: 12px;"></text><circle r="9" class="node" id="2_2" cx="526" cy="910.5" style="fill: rgb(255, 255, 255); stroke: rgb(255, 255, 255);"></circle><circle r="9" class="node" id="2_3" cx="526" cy="948.5" style="fill: rgb(255, 255, 255); stroke: rgb(255, 255, 255);"></circle><circle r="9" class="node" id="2_4" cx="526" cy="986.5" style="fill: rgb(255, 255, 255); stroke: rgb(255, 255, 255);"></circle><circle r="9" class="node" id="2_5" cx="526" cy="1024.5" style="fill: rgb(255, 255, 255); stroke: rgb(255, 255, 255);"></circle><circle r="9" class="node" id="2_6" cx="526" cy="1062.5" style="fill: rgb(255, 255, 255); stroke: rgb(255, 255, 255);"></circle><circle r="9" class="node" id="2_7" cx="526" cy="1100.5" style="fill: rgb(255, 255, 255); stroke: rgb(255, 255, 255);"></circle><circle r="9" class="node" id="3_0" cx="593" cy="872.5" style="fill: rgb(255, 255, 255); stroke: rgb(255, 255, 255);"></circle><circle r="9" class="node" id="3_1" cx="593" cy="910.5" style="fill: rgb(255, 255, 255); stroke: rgb(255, 255, 255);"></circle><circle r="9" class="node" id="3_2" cx="593" cy="948.5" style="fill: rgb(255, 255, 255); stroke: rgb(255, 255, 255);"></circle><circle r="9" class="node" id="3_3" cx="593" cy="986.5" style="fill: rgb(255, 255, 255); stroke: rgb(255, 255, 255);"></circle><circle r="9" class="node" id="3_4" cx="593" cy="1024.5" style="fill: rgb(255, 255, 255); stroke: rgb(255, 255, 255);"></circle><circle r="9" class="node" id="3_5" cx="593" cy="1062.5" style="fill: rgb(255, 255, 255); stroke: rgb(255, 255, 255);"></circle><text class="text" dy=".35em" x="558" y="1176.5" style="font-size: 12px;"></text><circle r="9" class="node" id="4_0" cx="660" cy="910.5" style="fill: rgb(255, 255, 255); stroke: rgb(255, 255, 255);"></circle><circle r="9" class="node" id="4_1" cx="660" cy="948.5" style="fill: rgb(255, 255, 255); stroke: rgb(255, 255, 255);"></circle><text class="text" dy=".35em" x="625" y="1176.5" style="font-size: 12px;"></text><circle r="9" class="node" id="4_2" cx="660" cy="986.5" style="fill: rgb(255, 255, 255); stroke: rgb(255, 255, 255);"></circle><circle r="9" class="node" id="4_3" cx="660" cy="1024.5" style="fill: rgb(255, 255, 255); stroke: rgb(255, 255, 255);"></circle><circle r="9" class="node" id="5_0" cx="727" cy="948.5" style="fill: rgb(255, 255, 255); stroke: rgb(255, 255, 255);"></circle><circle r="9" class="node" id="5_1" cx="727" cy="986.5" style="fill: rgb(255, 255, 255); stroke: rgb(255, 255, 255);"></circle><text class="text" dy=".35em" x="692" y="1176.5" style="font-size: 12px;"></text></g><defs><marker id="arrow" viewBox="0 -5 10 10" markerWidth="7" markerHeight="7" orient="auto" refX="37.2"><path d="M0,-5L10,0L0,5" style="stroke: rgb(80, 80, 80); fill: none;"></path></marker></defs></svg>